<svg width="24" height="16" viewBox="0 0 24 16" fill="none" xmlns="http://www.w3.org/2000/svg">
<path fill-rule="evenodd" clip-rule="evenodd" d="M12 0C14.7275 0 17.3357 1.43062 19.7663 3.78115C20.5955 4.58305 21.3457 5.43916 22.0061 6.29562C22.4046 6.81244 22.6875 7.21899 22.8424 7.4612L23.187 8L22.8424 8.5388C22.6875 8.78101 22.4046 9.18756 22.0061 9.70438C21.3457 10.5608 20.5955 11.417 19.7663 12.2188C17.3357 14.5694 14.7275 16 12 16C9.27245 16 6.66432 14.5694 4.23371 12.2188C3.40449 11.417 2.65431 10.5608 1.99391 9.70438C1.59541 9.18756 1.31247 8.78101 1.15756 8.5388L0.812965 8L1.15756 7.4612C1.31247 7.21899 1.59541 6.81244 1.99391 6.29562C2.65431 5.43916 3.40449 4.58305 4.23371 3.78115C6.66432 1.43062 9.27245 0 12 0ZM20.4223 7.51688C19.8176 6.73272 19.1302 5.9482 18.376 5.21885C16.2825 3.19438 14.1051 2 12 2C9.89492 2 7.71749 3.19438 5.62404 5.21885C4.86984 5.9482 4.18239 6.73272 3.57775 7.51688C3.44716 7.68623 3.32649 7.84782 3.21617 8C3.32649 8.15218 3.44716 8.31376 3.57775 8.48312C4.18239 9.26728 4.86984 10.0518 5.62404 10.7811C7.71749 12.8056 9.89492 14 12 14C14.1051 14 16.2825 12.8056 18.376 10.7811C19.1302 10.0518 19.8176 9.26728 20.4223 8.48312C20.5528 8.31376 20.6735 8.15218 20.7838 8C20.6735 7.84782 20.5528 7.68623 20.4223 7.51688ZM8 8C8 10.2091 9.79086 12 12 12C14.2091 12 16 10.2091 16 8C16 5.79086 14.2091 4 12 4C9.79086 4 8 5.79086 8 8ZM14 8C14 9.10457 13.1046 10 12 10C10.8954 10 10 9.10457 10 8C10 6.89543 10.8954 6 12 6C13.1046 6 14 6.89543 14 8Z" fill="#9564AA"/>
</svg>
