<svg>

    <symbol viewBox="0 0 24 16" xmlns="http://www.w3.org/2000/svg" id="eye">
        <path fill-rule="evenodd" clip-rule="evenodd" d="M12 0C14.7275 0 17.3357 1.43062 19.7663 3.78115C20.5955 4.58305 21.3457 5.43916 22.0061 6.29562C22.4046 6.81244 22.6875 7.21899 22.8424 7.4612L23.187 8L22.8424 8.5388C22.6875 8.78101 22.4046 9.18756 22.0061 9.70438C21.3457 10.5608 20.5955 11.417 19.7663 12.2188C17.3357 14.5694 14.7275 16 12 16C9.27245 16 6.66432 14.5694 4.23371 12.2188C3.40449 11.417 2.65431 10.5608 1.99391 9.70438C1.59541 9.18756 1.31247 8.78101 1.15756 8.5388L0.812965 8L1.15756 7.4612C1.31247 7.21899 1.59541 6.81244 1.99391 6.29562C2.65431 5.43916 3.40449 4.58305 4.23371 3.78115C6.66432 1.43062 9.27245 0 12 0ZM20.4223 7.51688C19.8176 6.73272 19.1302 5.9482 18.376 5.21885C16.2825 3.19438 14.1051 2 12 2C9.89492 2 7.71749 3.19438 5.62404 5.21885C4.86984 5.9482 4.18239 6.73272 3.57775 7.51688C3.44716 7.68623 3.32649 7.84782 3.21617 8C3.32649 8.15218 3.44716 8.31376 3.57775 8.48312C4.18239 9.26728 4.86984 10.0518 5.62404 10.7811C7.71749 12.8056 9.89492 14 12 14C14.1051 14 16.2825 12.8056 18.376 10.7811C19.1302 10.0518 19.8176 9.26728 20.4223 8.48312C20.5528 8.31376 20.6735 8.15218 20.7838 8C20.6735 7.84782 20.5528 7.68623 20.4223 7.51688ZM8 8C8 10.2091 9.79086 12 12 12C14.2091 12 16 10.2091 16 8C16 5.79086 14.2091 4 12 4C9.79086 4 8 5.79086 8 8ZM14 8C14 9.10457 13.1046 10 12 10C10.8954 10 10 9.10457 10 8C10 6.89543 10.8954 6 12 6C13.1046 6 14 6.89543 14 8Z"/>
    </symbol>

    <symbol viewBox="0 0 20 20" xmlns="http://www.w3.org/2000/svg" id="gift">
        <path fill-rule="evenodd" clip-rule="evenodd" d="M3.49704 5C3.16883 4.46338 3 3.80285 3 3C3 1.41709 4.19035 0 6 0C7.81199 0 9.27327 1.21363 10 3.11383C10.7267 1.21363 12.188 0 14 0C15.8096 0 17 1.41709 17 3C17 3.80285 16.8312 4.46338 16.503 5H18C19.1046 5 20 5.89543 20 7V9C20 10.1046 19.1046 11 18 11V18C18 19.1046 17.1046 20 16 20H4C2.89543 20 2 19.1046 2 18V11C0.89543 11 0 10.1046 0 9V7C0 5.89543 0.89543 5 2 5H3.49704ZM9 7H2V9H9V7ZM18 9H11V7H18V9ZM9 18V11H4V18H9ZM16 18H11V11H16V18ZM6 2C5.37965 2 5 2.45196 5 3C5 4.25323 6.017 4.84912 8.42942 4.97449C8.1613 3.1116 7.16218 2 6 2ZM11.5 4.97449C11.7681 3.1116 12.7672 2 13.9294 2C14.5498 2 14.9294 2.45196 14.9294 3C14.9294 4.25323 13.9124 4.84912 11.5 4.97449Z"/>
    </symbol>

    <symbol viewBox="0 0 22 21" xmlns="http://www.w3.org/2000/svg" id="heart">
       <path fill-rule="evenodd" clip-rule="evenodd" d="M15.5532 1.61018e-05C14.1056 0 13.1724 0.172464 12.1027 0.696073C11.7066 0.88993 11.335 1.12339 10.99 1.39576C10.6582 1.13866 10.3015 0.915918 9.92181 0.728134C8.83132 0.188775 7.85028 0 6.45455 0C2.71644 0 0 3.09727 0 7.11988C0 10.1578 1.69383 13.0923 4.84884 15.9299C6.50489 17.4193 8.61932 18.8933 10.1336 19.6775L11 20.1261L11.8664 19.6775C13.3807 18.8933 15.4951 17.4193 17.1512 15.9299C20.3062 13.0923 22 10.1578 22 7.11988C22 3.13984 19.2579 0.0153583 15.5532 1.61018e-05ZM20 7.11988C20 9.4999 18.5862 11.9493 15.8137 14.4429C14.3022 15.8023 12.359 17.1609 11 17.8737C9.64104 17.1609 7.69782 15.8023 6.18628 14.4429C3.41382 11.9493 2 9.4999 2 7.11988C2 4.14772 3.88364 2 6.45455 2C7.56428 2 8.24813 2.13159 9.03514 2.52084C9.50001 2.75077 9.91088 3.05437 10.2665 3.43377L11.0023 4.2187L11.7315 3.42755C12.0951 3.03295 12.512 2.72244 12.9819 2.49243C13.7459 2.11849 14.387 2 15.5491 2.00001C18.0882 2.01053 20 4.18896 20 7.11988Z"/>
    </symbol>

    <symbol viewBox="0 0 20 20" xmlns="http://www.w3.org/2000/svg" id="message">
       <path fill-rule="evenodd" clip-rule="evenodd" d="M4 19.8042L10.0868 16H18C19.1046 16 20 15.1046 20 14V2C20 0.89543 19.1046 0 18 0H2C0.89543 0 0 0.89543 0 2V14C0 15.1046 0.89543 16 2 16H4V19.8042ZM9.5132 14L6 16.1958V14H2V2H18V14H9.5132ZM5 11V9H12V11H5ZM5 5V7H14V5H5Z"/>
    </symbol>

    <symbol viewBox="0 0 22 22" xmlns="http://www.w3.org/2000/svg" id="settings">
       <path fill-rule="evenodd" clip-rule="evenodd" d="M11 15C8.79086 15 7 13.2091 7 11C7 8.79086 8.79086 7 11 7C13.2091 7 15 8.79086 15 11C15 13.2091 13.2091 15 11 15ZM13 11C13 12.1046 12.1046 13 11 13C9.89543 13 9 12.1046 9 11C9 9.89543 9.89543 9 11 9C12.1046 9 13 9.89543 13 11Z"/>
        <path fill-rule="evenodd" clip-rule="evenodd" d="M17.6562 19.897L19.8733 17.6798L19.0925 14.843L19.4327 14.0305L22 12.5818V9.44645L19.44 7.99173L19.1055 7.18067L19.8961 4.34235L17.6774 2.12683L14.8403 2.90748L14.0296 2.56758L12.5808 0H9.44544L7.99072 2.56004L7.17985 2.89446L4.34198 2.10281L2.1267 4.31809L2.90748 7.15567L2.56758 7.96634L0 9.41514V12.5496L2.55774 14.0076L2.89252 14.8193L2.10197 17.6572L4.31809 19.8733L7.15567 19.0925L7.96644 19.4325L9.41527 21.999H12.5498L14.0067 19.4412L14.8183 19.1065L17.6562 19.897ZM17.8527 12.6256L16.9809 14.7078L17.6362 17.0886L17.0678 17.657L14.692 16.9951L12.609 17.8542L11.3873 19.999H10.5829L9.37141 17.8529L7.29155 16.9808L4.90947 17.6362L4.34203 17.0688L5.00385 14.693L4.14482 12.6101L2 11.3876V10.583L4.1471 9.3715L5.0192 7.29155L4.36375 4.90947L4.93001 4.34321L7.30576 5.00595L9.38955 4.14655L10.6093 2H11.4129L12.6245 4.1471L14.7044 5.0192L17.087 4.36362L17.6558 4.93166L16.9941 7.30696L17.8534 9.39056L20 10.6103V11.4139L17.8527 12.6256Z"/>
    </symbol>

    <symbol viewBox="0 0 23 22" xmlns="http://www.w3.org/2000/svg" id='profile'>
        <path fill-rule="evenodd" clip-rule="evenodd" d="M11.187 14C8.94788 14 7.18701 12.4274 7.18701 9C7.18701 6.75576 8.76611 5 11.187 5C13.6012 5 15.187 6.92158 15.187 9.2C15.187 12.4796 13.4051 14 11.187 14ZM9.18701 9C9.18701 11.2693 10.0052 12 11.187 12C12.3647 12 13.187 11.2984 13.187 9.2C13.187 7.95042 12.4027 7 11.187 7C9.92075 7 9.18701 7.81582 9.18701 9Z"/>
        <path fill-rule="evenodd" clip-rule="evenodd" d="M11.187 22C5.11188 22 0.187012 17.0751 0.187012 11C0.187012 4.92487 5.11188 0 11.187 0C17.2621 0 22.187 4.92487 22.187 11C22.187 17.0751 17.2621 22 11.187 22ZM18.5865 16.1246C19.5956 14.6703 20.187 12.9042 20.187 11C20.187 6.02944 16.1576 2 11.187 2C6.21645 2 2.18701 6.02944 2.18701 11C2.18701 12.9042 2.77839 14.6703 3.78752 16.1246C4.91296 14.6381 7.55761 14 11.187 14C14.8164 14 17.4611 14.6381 18.5865 16.1246ZM17.1517 17.7398C16.859 16.6874 14.7564 16 11.187 16C7.61763 16 5.51502 16.6874 5.22233 17.7398C6.81031 19.1462 8.89895 20 11.187 20C13.4751 20 15.5637 19.1462 17.1517 17.7398Z"/>
    </symbol>

    <symbol viewBox="0 0 23 18" xmlns="http://www.w3.org/2000/svg" id='camera'>
        <path d="M19.187 7C19.187 7.55228 18.7393 8 18.187 8C17.6347 8 17.187 7.55228 17.187 7C17.187 6.44772 17.6347 6 18.187 6C18.7393 6 19.187 6.44772 19.187 7Z"/>
        <path fill-rule="evenodd" clip-rule="evenodd" d="M6.18701 10C6.18701 12.7614 8.42559 15 11.187 15C13.9484 15 16.187 12.7614 16.187 10C16.187 7.23858 13.9484 5 11.187 5C8.42559 5 6.18701 7.23858 6.18701 10ZM14.187 10C14.187 11.6569 12.8439 13 11.187 13C9.53016 13 8.18701 11.6569 8.18701 10C8.18701 8.34315 9.53016 7 11.187 7C12.8439 7 14.187 8.34315 14.187 10Z"/>
        <path fill-rule="evenodd" clip-rule="evenodd" d="M6.12403 2.84538C6.19488 2.74688 6.27357 2.62631 6.37391 2.46372C6.41056 2.40433 6.5105 2.23944 6.58493 2.11665L6.66881 1.97841C7.4978 0.622387 8.10041 0 9.18701 0H13.187C14.2736 0 14.8762 0.622387 15.7052 1.97841L15.7891 2.11664C15.8635 2.23943 15.9635 2.40433 16.0001 2.46372C16.1005 2.62631 16.1791 2.74688 16.25 2.84538C16.2967 2.91033 16.3375 2.96194 16.3708 3H19.187C20.8439 3 22.187 4.34315 22.187 6V15C22.187 16.6569 20.8439 18 19.187 18H3.18701C1.53016 18 0.187012 16.6569 0.187012 15V6C0.187012 4.34315 1.53016 3 3.18701 3H6.00321C6.0365 2.96194 6.07731 2.91033 6.12403 2.84538ZM3.18701 5C2.63473 5 2.18701 5.44772 2.18701 6V15C2.18701 15.5523 2.63473 16 3.18701 16H19.187C19.7393 16 20.187 15.5523 20.187 15V6C20.187 5.44772 19.7393 5 19.187 5H16.187C15.5227 5 15.0746 4.63641 14.6264 4.01326C14.5233 3.86988 14.4211 3.71332 14.2981 3.51409C14.256 3.44583 14.1466 3.26536 14.0716 3.14152L13.9988 3.02159C13.5465 2.28172 13.2737 2 13.187 2H9.18701C9.10028 2 8.82751 2.28172 8.37521 3.02159L8.30244 3.14152C8.2274 3.26534 8.11793 3.44596 8.07588 3.51409C7.95293 3.71332 7.85076 3.86988 7.74763 4.01326C7.29938 4.63641 6.85135 5 6.18701 5H3.18701Z"/>
    </symbol>

    <symbol viewBox="0 0 21 21" xmlns="http://www.w3.org/2000/svg" id='exit'>
        <path d="M7.4799 6.51033L10.7728 9.80322L0.187011 9.80322L0.187011 11.8032L10.7728 11.8032L7.4799 15.0961L8.89412 16.5103L14.6012 10.8032L8.89412 5.09612L7.4799 6.51033Z"/>
        <path d="M18.187 0.803222L14.187 0.803222L14.187 2.80322L18.187 2.80322L18.187 18.8032L14.187 18.8032L14.187 20.8032L18.187 20.8032C19.2916 20.8032 20.187 19.9078 20.187 18.8032L20.187 2.80322C20.187 1.69865 19.2916 0.803222 18.187 0.803222Z"/>
    </symbol>

</svg>